<?xml version="1.0" encoding="UTF-8" standalone="no"?>
<svg
   viewBox="0 0 512 512"
   version="1.1"
   id="svg3"
   sodipodi:docname="ion--options-outline-2.svg"
   xml:space="preserve"
   inkscape:version="1.4.3 (0d15f75042, 2025-12-25)"
   xmlns:inkscape="http://www.inkscape.org/namespaces/inkscape"
   xmlns:sodipodi="http://sodipodi.sourceforge.net/DTD/sodipodi-0.dtd"
   xmlns="http://www.w3.org/2000/svg"
   xmlns:svg="http://www.w3.org/2000/svg"><defs
     id="defs3" /><sodipodi:namedview
     id="namedview3"
     pagecolor="#ffffff"
     bordercolor="#000000"
     borderopacity="0.25"
     inkscape:showpageshadow="2"
     inkscape:pageopacity="0.0"
     inkscape:pagecheckerboard="0"
     inkscape:deskcolor="#d1d1d1"
     showgrid="false"
     inkscape:zoom="0.63598178"
     inkscape:cx="251.57953"
     inkscape:cy="307.39874"
     inkscape:window-width="1920"
     inkscape:window-height="1172"
     inkscape:window-x="0"
     inkscape:window-y="0"
     inkscape:window-maximized="1"
     inkscape:current-layer="svg3" /><path
     id="path1"
     style="baseline-shift:baseline;display:inline;overflow:visible;vector-effect:none;fill:currentColor;stroke-linecap:round;stroke-linejoin:round;enable-background:accumulate;stop-color:#000000;stop-opacity:1;opacity:1"
     d="M 336 80 C 315.27773 80 297.43106 93.438607 290.77734 112 L 64 112 A 16 16 0 0 0 48 128 A 16 16 0 0 0 64 144 L 92.132812 144 L 92.132812 142.97852 L 93.154297 144 L 290.77734 144 C 297.43106 162.56139 315.27773 176 336 176 C 356.72227 176 374.56894 162.56139 381.22266 144 L 448 144 A 16 16 0 0 0 464 128 A 16 16 0 0 0 448 112 L 381.22266 112 C 374.56894 93.438607 356.72227 80 336 80 z M 336 112 C 345.02607 112 352 118.97393 352 128 C 352 137.02607 345.02607 144 336 144 C 326.97393 144 320 137.02607 320 128 C 320 118.97393 326.97393 112 336 112 z M 176 208 C 170.38411 208 164.97911 208.98644 159.95117 210.79492 L 169.97461 220.81836 C 175.80039 216.7493 181.87538 212.99316 188.17383 209.58594 C 184.28015 208.55154 180.19903 208 176 208 z M 64 240 A 16 16 0 0 0 48 256 A 16 16 0 0 0 64 272 L 92.132812 272 L 92.132812 240 L 64 240 z M 401.40039 240 C 411.17391 249.63501 419.86613 260.36859 427.27734 272 L 448 272 A 16 16 0 0 0 464 256 A 16 16 0 0 0 448 240 L 401.40039 240 z M 133.67969 243.2793 L 133.67969 278.51758 C 141.80538 293.62607 157.79271 304 176 304 C 181.49425 304 186.78578 303.05473 191.7207 301.32031 L 167.12695 276.72656 L 164.70703 274.30664 L 133.67969 243.2793 z M 274.04102 267.61328 C 263.90035 267.61328 254.15004 269.16149 244.9375 272 L 303.72852 272 C 294.27983 269.13522 284.30086 267.61235 274.04297 267.61328 L 274.04102 267.61328 z M 336 336 C 322.1233 336 309.53635 342.02658 300.73633 351.58203 L 301.17188 352.01758 L 300.33984 352.01758 C 296.18675 356.6377 292.90802 362.0562 290.77734 368 L 64 368 A 16 16 0 0 0 48 384 A 16 16 0 0 0 64 400 L 290.77734 400 C 297.43106 418.56139 315.27773 432 336 432 C 356.72227 432 374.56894 418.56139 381.22266 400 L 448 400 A 16 16 0 0 0 464 384 A 16 16 0 0 0 448 368 L 381.22266 368 C 374.56894 349.43861 356.72227 336 336 336 z M 336 368 C 345.02607 368 352 374.97393 352 384 C 352 393.02607 345.02607 400 336 400 C 326.97396 400 320.00005 393.02602 320 384 C 320 374.97393 326.97393 368 336 368 z " /><path
     fill="currentColor"
     d="m 172.04367,237.25685 c 28.39057,-24.55401 65.22159,-39.90027 105.88918,-39.90027 71.3601,0 131.67088,46.49915 152.84872,110.79998 l -36.21716,11.97008 A 122.77006,122.77006 0 0 0 277.93285,235.72222 c -29.92521,0 -57.24154,11.04931 -78.57284,28.85097 l 55.55345,55.55345 H 116.79714 V 182.01032 Z"
     id="path1-6"
     style="stroke-width:15.3463" /></svg>
