<svg xmlns="http://www.w3.org/2000/svg" viewBox="0 0 24 24">
	<g fill="none" fill-rule="evenodd">
		<path d="m12.593 23.258l-.011.002l-.071.035l-.02.004l-.014-.004l-.071-.035q-.016-.005-.024.005l-.004.01l-.017.428l.005.02l.01.013l.104.074l.015.004l.012-.004l.104-.074l.012-.016l.004-.017l-.017-.427q-.004-.016-.017-.018m.265-.113l-.013.002l-.185.093l-.01.01l-.003.011l.018.43l.005.012l.008.007l.201.093q.019.005.029-.008l.004-.014l-.034-.614q-.005-.018-.02-.022m-.715.002a.02.02 0 0 0-.027.006l-.006.014l-.034.614q.001.018.017.024l.015-.002l.201-.093l.01-.008l.004-.011l.017-.43l-.003-.012l-.01-.01z" />
		<path fill="currentColor" d="M13.5 3a1.5 1.5 0 0 0-3 0v10a1.5 1.5 0 0 0 3 0zM7.854 5.75a1.5 1.5 0 1 0-1.661-2.5A10.49 10.49 0 0 0 1.5 12c0 5.799 4.701 10.5 10.5 10.5S22.5 17.799 22.5 12c0-3.654-1.867-6.87-4.693-8.75a1.5 1.5 0 0 0-1.66 2.5a7.5 7.5 0 1 1-8.292 0Z" />
	</g>
</svg>
