<svg xmlns="http://www.w3.org/2000/svg" viewBox="0 0 24 24">
	<path fill="currentColor" d="M6 4H4V2h16v2h-2v2c0 1.615-.816 2.915-1.844 3.977c-.703.726-1.558 1.395-2.425 2.023c.867.628 1.722 1.297 2.425 2.023C17.184 15.085 18 16.385 18 18v2h2v2H4v-2h2v-2c0-1.615.816-2.915 1.844-3.977c.703-.726 1.558-1.395 2.425-2.023c-.867-.628-1.722-1.297-2.425-2.023C6.816 8.915 6 7.615 6 6zm2 0v2c0 .685.26 1.335.771 2h6.458c.51-.665.771-1.315.771-2V4zm4 9.222c-1.045.738-1.992 1.441-2.719 2.192a7 7 0 0 0-.51.586h6.458a7 7 0 0 0-.51-.586c-.727-.751-1.674-1.454-2.719-2.192" />
</svg>
